<svg width="15" height="15" viewBox="0 0 15 15" fill="none" xmlns="http://www.w3.org/2000/svg">
<path d="M13.748 2.43513L11.8548 0.548477L7.92307 4.47367L9.44728 6.04781C9.19184 6.50125 8.6376 7.3699 7.69303 8.31447C6.74835 9.25918 5.87335 9.81971 5.41556 10.0792L3.8723 8.55562L0.00195312 12.4029L1.8848 14.2983C2.60455 15.0181 3.69967 15.2046 4.60989 14.7625C5.9989 14.0879 8.09516 12.8431 10.194 10.7443C12.2928 8.64552 13.5376 6.54924 14.2122 5.16023C14.372 4.83109 14.4497 4.47787 14.4497 4.12692C14.4497 3.5072 14.2075 2.89464 13.748 2.43513ZM13.1974 4.66732C12.5606 5.97846 11.3842 7.95865 9.3963 9.94658C7.40838 11.9345 5.42818 13.1109 4.11705 13.7477C3.63905 13.9799 3.06257 13.8806 2.68389 13.5019L1.59715 12.4079L3.87512 10.1436L5.18984 11.4415L5.54159 11.2849C5.59875 11.2595 6.95916 10.6438 8.49085 9.11215C10.0236 7.57947 10.6263 6.23054 10.6512 6.17386L10.8038 5.82683L9.50647 4.48705L11.8556 2.14178L12.9509 3.23327C13.3304 3.6133 13.4295 4.18952 13.1974 4.66732Z" fill="#6E9C9F"/>
</svg>
